<svg width="35" height="35" viewBox="0 0 35 35" fill="none" xmlns="http://www.w3.org/2000/svg">
<circle cx="17.0447" cy="17.0149" r="17.0149" fill="white"/>
<path d="M22.6824 9.98524C22.6824 9.98524 24.3391 9.32627 24.2006 10.9265C24.1549 11.5855 23.7408 13.8921 23.4185 16.3866L22.314 23.7767C22.314 23.7767 22.2219 24.8593 21.3933 25.0477C20.5651 25.2356 19.3225 24.3887 19.0922 24.2004C18.908 24.059 15.6406 21.9407 14.49 20.9055C14.1676 20.6228 13.7992 20.0582 14.5361 19.3992L19.3685 14.692C19.9208 14.1266 20.473 12.8086 18.1719 14.4093L11.7284 18.8807C11.7284 18.8807 10.9919 19.3518 9.6115 18.9281L6.61958 17.9864C6.61958 17.9864 5.51509 17.2805 7.4021 16.5745C12.0047 14.3623 17.6662 12.1035 22.6824 9.98524Z" fill="#001F3D"/>
</svg>
