<svg width="35" height="35" viewBox="0 0 35 35" fill="none" xmlns="http://www.w3.org/2000/svg">
<circle cx="17.0149" cy="17.0149" r="17.0149" fill="white"/>
<path d="M25.9738 22.7287H23.9303C23.1574 22.7287 22.9246 22.1028 21.5392 20.7165C20.3285 19.5496 19.8171 19.4046 19.5109 19.4046C19.0873 19.4046 18.9718 19.521 18.9718 20.104V21.9416C18.9718 22.4386 18.8106 22.7296 17.5121 22.7296C16.2523 22.645 15.0307 22.2623 13.9478 21.6131C12.865 20.9638 11.9519 20.0666 11.2837 18.9953C9.69718 17.0207 8.59328 14.7031 8.05981 12.2269C8.05981 11.9207 8.17623 11.6431 8.76011 11.6431H10.8019C11.3267 11.6431 11.5156 11.8768 11.7216 12.4168C12.7129 15.3344 14.4046 17.8723 15.0915 17.8723C15.3547 17.8723 15.4694 17.7559 15.4694 17.0995V14.0941C15.3825 12.7231 14.6544 12.6075 14.6544 12.1114C14.6637 11.9805 14.7235 11.8584 14.8213 11.7709C14.9192 11.6835 15.0472 11.6376 15.1783 11.6431H18.3879C18.8267 11.6431 18.9718 11.8616 18.9718 12.3863V16.4431C18.9718 16.881 19.1598 17.026 19.2924 17.026C19.5556 17.026 19.758 16.881 20.2407 16.3992C21.2754 15.1374 22.1206 13.7316 22.75 12.226C22.8144 12.0453 22.9362 11.8906 23.0967 11.7855C23.2573 11.6804 23.4478 11.6307 23.6392 11.644H25.6819C26.2944 11.644 26.4243 11.9502 26.2944 12.3872C25.5515 14.0515 24.6322 15.6313 23.5524 17.0995C23.3321 17.4353 23.2443 17.6099 23.5524 18.004C23.7547 18.3102 24.4712 18.9084 24.9521 19.4771C25.6524 20.1756 26.2335 20.9834 26.6732 21.8681C26.8488 22.4377 26.5568 22.7287 25.9738 22.7287Z" fill="#001F3D"/>
</svg>
