<svg width="33" height="33" viewBox="0 0 33 33" fill="none" xmlns="http://www.w3.org/2000/svg">
<circle cx="16.3611" cy="16.3611" r="16.3611" fill="#3A6FE8"/>
<path d="M24.9757 21.8553H23.0106C22.2675 21.8553 22.0436 21.2534 20.7114 19.9204C19.5472 18.7984 19.0555 18.6589 18.761 18.6589C18.3537 18.6589 18.2426 18.7708 18.2426 19.3314V21.0984C18.2426 21.5763 18.0876 21.8562 16.839 21.8562C15.6277 21.7748 14.453 21.4068 13.4118 20.7825C12.3705 20.1582 11.4925 19.2955 10.85 18.2653C9.32444 16.3666 8.26297 14.1381 7.75 11.7571C7.75 11.4626 7.86194 11.1956 8.42339 11.1956H10.3867C10.8913 11.1956 11.073 11.4204 11.2711 11.9396C12.2243 14.7451 13.851 17.1855 14.5114 17.1855C14.7646 17.1855 14.8748 17.0736 14.8748 16.4424V13.5525C14.7913 12.2341 14.0912 12.123 14.0912 11.646C14.1001 11.5201 14.1576 11.4027 14.2517 11.3186C14.3458 11.2345 14.4689 11.1904 14.595 11.1956H17.6812C18.1031 11.1956 18.2426 11.4057 18.2426 11.9103V15.8112C18.2426 16.2323 18.4235 16.3718 18.5509 16.3718C18.8041 16.3718 18.9987 16.2323 19.4628 15.769C20.4577 14.5557 21.2705 13.2039 21.8757 11.7562C21.9376 11.5824 22.0547 11.4336 22.2091 11.3326C22.3635 11.2315 22.5467 11.1837 22.7307 11.1965H24.6949C25.2839 11.1965 25.4088 11.491 25.2839 11.9112C24.5695 13.5115 23.6856 15.0306 22.6472 16.4424C22.4354 16.7653 22.351 16.9332 22.6472 17.3121C22.8418 17.6066 23.5307 18.1818 23.9931 18.7286C24.6665 19.4003 25.2254 20.177 25.6482 21.0278C25.817 21.5755 25.5362 21.8553 24.9757 21.8553Z" fill="white"/>
</svg>
