<svg width="34" height="33" viewBox="0 0 34 33" fill="none" xmlns="http://www.w3.org/2000/svg">
<circle cx="17.0833" cy="16.3611" r="16.3611" fill="#3A6FE8"/>
<path d="M22.5045 9.60148C22.5045 9.60148 24.0976 8.96782 23.9643 10.5066C23.9204 11.1402 23.5223 13.3582 23.2123 15.7569L22.1502 22.863C22.1502 22.863 22.0616 23.904 21.2649 24.0851C20.4686 24.2658 19.2737 23.4515 19.0522 23.2704C18.8751 23.1344 15.7332 21.0976 14.6269 20.1021C14.3169 19.8303 13.9626 19.2874 14.6712 18.6537L19.3179 14.1274C19.849 13.5837 20.38 12.3164 18.1673 13.8555L11.9714 18.1552C11.9714 18.1552 11.2632 18.6081 9.93585 18.2007L7.05889 17.2952C7.05889 17.2952 5.99685 16.6164 7.81135 15.9376C12.2371 13.8103 17.681 11.6384 22.5045 9.60148Z" fill="white"/>
</svg>
